<svg xmlns="http://www.w3.org/2000/svg" width="24" height="24" fill="none">
    <path d="M10.8 19.5c0 1.375-1.08 2.5-2.4 2.5S6 20.875 6 19.5 7.08 17 8.4 17s2.4 1.125 2.4 2.5zm-2.4-10C7.08 9.5 6 10.625 6 12s1.08 2.5 2.4 2.5 2.4-1.125 2.4-2.5-1.08-2.5-2.4-2.5zm0-7.5C7.08 2 6 3.125 6 4.5S7.08 7 8.4 7s2.4-1.125 2.4-2.5S9.72 2 8.4 2zm7.2 5C16.92 7 18 5.875 18 4.5S16.92 2 15.6 2s-2.4 1.125-2.4 2.5S14.28 7 15.6 7zm0 2.5c-1.32 0-2.4 1.125-2.4 2.5s1.08 2.5 2.4 2.5S18 13.375 18 12s-1.08-2.5-2.4-2.5zm0 7.5c-1.32 0-2.4 1.125-2.4 2.5s1.08 2.5 2.4 2.5 2.4-1.125 2.4-2.5-1.08-2.5-2.4-2.5z" fill="#000"/>
</svg>